<?xml version="1.0" encoding="UTF-8" standalone="no"?>
<!-- Created with Inkscape (http://www.inkscape.org/) -->
<svg xmlns:dc="http://purl.org/dc/elements/1.1/" xmlns:cc="http://creativecommons.org/ns#" xmlns:rdf="http://www.w3.org/1999/02/22-rdf-syntax-ns#" xmlns:svg="http://www.w3.org/2000/svg" xmlns="http://www.w3.org/2000/svg" xmlns:xlink="http://www.w3.org/1999/xlink" xmlns:sodipodi="http://sodipodi.sourceforge.net/DTD/sodipodi-0.dtd" xmlns:inkscape="http://www.inkscape.org/namespaces/inkscape" width="166.37231" height="168.47308" id="svg2965" version="1.1" inkscape:version="0.47 r22583" sodipodi:docname="communicator-blue.svg">
  <defs id="defs2967">
    <inkscape:perspective sodipodi:type="inkscape:persp3d" inkscape:vp_x="0 : 526.18109 : 1" inkscape:vp_y="0 : 1000 : 0" inkscape:vp_z="744.09448 : 526.18109 : 1" inkscape:persp3d-origin="372.04724 : 350.78739 : 1" id="perspective2973"/>
    <inkscape:perspective id="perspective2983" inkscape:persp3d-origin="0.5 : 0.33333333 : 1" inkscape:vp_z="1 : 0.5 : 1" inkscape:vp_y="0 : 1000 : 0" inkscape:vp_x="0 : 0.5 : 1" sodipodi:type="inkscape:persp3d"/>
    <linearGradient inkscape:collect="always" xlink:href="#linearGradient3917" id="linearGradient5325" gradientUnits="userSpaceOnUse" gradientTransform="matrix(0.93571428,0,0,0.97142857,96.553265,671.01127)" x1="381.89471" y1="-310.05496" x2="387.75485" y2="-147.97206"/>
    <linearGradient id="linearGradient3917">
      <stop style="stop-color:#edf4fd;stop-opacity:0.52845526;" offset="0" id="stop3919"/>
      <stop style="stop-color:#175bb3;stop-opacity:0;" offset="1" id="stop3921"/>
    </linearGradient>
    <inkscape:perspective id="perspective3075" inkscape:persp3d-origin="0.5 : 0.33333333 : 1" inkscape:vp_z="1 : 0.5 : 1" inkscape:vp_y="0 : 1000 : 0" inkscape:vp_x="0 : 0.5 : 1" sodipodi:type="inkscape:persp3d"/>
    <linearGradient inkscape:collect="always" xlink:href="#linearGradient3952-8" id="linearGradient5372" gradientUnits="userSpaceOnUse" x1="379.92142" y1="-298.53522" x2="387.75485" y2="-148.13335"/>
    <linearGradient inkscape:collect="always" id="linearGradient3952-8">
      <stop style="stop-color:#0146a8;stop-opacity:1;" offset="0" id="stop3954-1"/>
      <stop style="stop-color:#0146a8;stop-opacity:0;" offset="1" id="stop3956-0"/>
    </linearGradient>
    <linearGradient inkscape:collect="always" xlink:href="#linearGradient3917-2" id="linearGradient5374" gradientUnits="userSpaceOnUse" gradientTransform="matrix(0.93571428,0,0,0.97142857,-395.59376,1094.2791)" x1="381.89471" y1="-310.05496" x2="387.75485" y2="-147.97206"/>
    <linearGradient id="linearGradient3917-2">
      <stop style="stop-color:#edf4fd;stop-opacity:0.52845526;" offset="0" id="stop3919-2"/>
      <stop style="stop-color:#175bb3;stop-opacity:0;" offset="1" id="stop3921-9"/>
    </linearGradient>
    <linearGradient y2="-147.97206" x2="387.75485" y1="-310.05496" x1="381.89471" gradientTransform="matrix(0.93571428,0,0,0.97142857,-395.59376,1094.2791)" gradientUnits="userSpaceOnUse" id="linearGradient3093" xlink:href="#linearGradient3917-2" inkscape:collect="always"/>
    <inkscape:perspective id="perspective3161" inkscape:persp3d-origin="0.5 : 0.33333333 : 1" inkscape:vp_z="1 : 0.5 : 1" inkscape:vp_y="0 : 1000 : 0" inkscape:vp_x="0 : 0.5 : 1" sodipodi:type="inkscape:persp3d"/>
    <linearGradient inkscape:collect="always" xlink:href="#linearGradient3952" id="linearGradient4173" gradientUnits="userSpaceOnUse" x1="379.92142" y1="-298.53522" x2="387.75485" y2="-148.13335"/>
    <linearGradient inkscape:collect="always" id="linearGradient3952">
      <stop style="stop-color:#0146a8;stop-opacity:1;" offset="0" id="stop3954"/>
      <stop style="stop-color:#0146a8;stop-opacity:0;" offset="1" id="stop3956"/>
    </linearGradient>
    <linearGradient inkscape:collect="always" xlink:href="#linearGradient3917-8" id="linearGradient5377" gradientUnits="userSpaceOnUse" gradientTransform="matrix(0.93571428,0,0,0.97142857,387.17357,670.22793)" x1="381.89471" y1="-310.05496" x2="387.75485" y2="-147.97206"/>
    <linearGradient id="linearGradient3917-8">
      <stop style="stop-color:#edf4fd;stop-opacity:0.52845526;" offset="0" id="stop3919-1"/>
      <stop style="stop-color:#175bb3;stop-opacity:0;" offset="1" id="stop3921-2"/>
    </linearGradient>
    <linearGradient y2="-147.97206" x2="387.75485" y1="-310.05496" x1="381.89471" gradientTransform="matrix(0.93571428,0,0,0.97142857,387.17357,670.22793)" gradientUnits="userSpaceOnUse" id="linearGradient3179" xlink:href="#linearGradient3917-8" inkscape:collect="always"/>
  </defs>
  <sodipodi:namedview id="base" pagecolor="#ffffff" bordercolor="#666666" borderopacity="1.0" inkscape:pageopacity="0.0" inkscape:pageshadow="2" inkscape:zoom="1.4" inkscape:cx="-21.870094" inkscape:cy="29.85249" inkscape:document-units="px" inkscape:current-layer="layer1" showgrid="false" inkscape:window-width="613" inkscape:window-height="504" inkscape:window-x="51" inkscape:window-y="612" inkscape:window-maximized="0"/>
  <metadata id="metadata2970">
    <rdf:RDF>
      <cc:Work rdf:about="">
        <dc:format>image/svg+xml</dc:format>
        <dc:type rdf:resource="http://purl.org/dc/dcmitype/StillImage"/>
        <dc:title/>
      </cc:Work>
    </rdf:RDF>
  </metadata>
  <g inkscape:label="Layer 1" inkscape:groupmode="layer" id="layer1" transform="translate(-431.8701,-415.88444)">
    <g id="g5381" transform="matrix(0.75852693,0,0,0.75852693,-53.839943,146.38337)">
      <path sodipodi:type="arc" style="fill:#103683;fill-opacity:1;stroke-width:1.89999998;stroke-miterlimit:4;stroke-dasharray:none" id="path4167" sodipodi:cx="387.75485" sodipodi:cy="-208.45078" sodipodi:rx="109.66804" sodipodi:ry="109.66804" d="m 497.42289,-208.45078 c 0,60.56799 -49.10005,109.668042 -109.66804,109.668042 -60.56798,0 -109.66804,-49.100052 -109.66804,-109.668042 0,-60.56798 49.10006,-109.66803 109.66804,-109.66803 60.56799,0 109.66804,49.10005 109.66804,109.66803 z" transform="matrix(1,0,0,1.0126269,362.24647,677.43099)"/>
      <path transform="matrix(0.93571428,0,0,0.97142857,387.17357,670.22793)" d="m 497.42289,-208.45078 c 0,60.56799 -49.10005,109.668042 -109.66804,109.668042 -60.56798,0 -109.66804,-49.100052 -109.66804,-109.668042 0,-60.56798 49.10006,-109.66803 109.66804,-109.66803 60.56799,0 109.66804,49.10005 109.66804,109.66803 z" sodipodi:ry="109.66804" sodipodi:rx="109.66804" sodipodi:cy="-208.45078" sodipodi:cx="387.75485" id="path4169" style="fill:url(#linearGradient4173);fill-opacity:1;stroke-width:1.89999998;stroke-miterlimit:4;stroke-dasharray:none" sodipodi:type="arc"/>
      <g transform="matrix(2.0388298,0,0,1.2723705,-703.43955,-128.88501)" id="text4182" style="font-size:40px;font-style:normal;font-variant:normal;font-weight:bold;font-stretch:normal;fill:#eeeeee;fill-opacity:1;stroke:none;font-family:Arial Rounded MT Bold;-inkscape-font-specification:'Arial Rounded MT Bold, Bold'">
        <path id="path4187" style="font-size:144px;fill:#eeeeee;font-family:Arial Rounded MT Bold;-inkscape-font-specification:'Arial Rounded MT Bold, Bold'" d="m 721.49341,450.78937 0,55.47656 c -3e-5,3.84376 -0.91409,6.75 -2.74219,8.71875 -1.82815,1.96875 -4.14846,2.95312 -6.96094,2.95313 -2.81251,-10e-6 -5.10939,-1.00782 -6.89062,-3.02344 -1.73439,-2.01562 -2.60157,-4.89843 -2.60156,-8.64844 l 0,-54.91406 c -10e-6,-3.79681 0.86717,-6.65618 2.60156,-8.57813 1.78123,-1.9218 4.07811,-2.88273 6.89062,-2.88281 2.81248,8e-5 5.13279,0.96101 6.96094,2.88281 1.8281,1.92195 2.74216,4.59382 2.74219,8.01563 m -9.49219,-19.82813 c -2.67189,9e-5 -4.96876,-0.82022 -6.89062,-2.46093 -1.87502,-1.64054 -2.81251,-3.96085 -2.8125,-6.96094 -10e-6,-2.71865 0.96092,-4.94522 2.88281,-6.67969 1.96873,-1.78115 4.24217,-2.67177 6.82031,-2.67187 2.48435,10e-5 4.68748,0.79697 6.60938,2.39062 1.92184,1.59385 2.88278,3.91416 2.88281,6.96094 -3e-5,2.95321 -0.93753,5.27352 -2.8125,6.96094 -1.87503,1.64071 -4.10159,2.46102 -6.67969,2.46093"/>
      </g>
      <path style="fill:url(#linearGradient3179);fill-opacity:1;stroke-width:1.89999998;stroke-miterlimit:4;stroke-dasharray:none" d="m 749.99647,361.18367 c -56.67433,0 -102.625,47.72503 -102.625,106.5625 0,3.7524 0.1979,7.44146 0.5625,11.09375 50.06658,18.72599 126.58171,32.36872 204.6875,-10.59375 7.4e-4,-0.16695 0,-0.33287 0,-0.5 0,-58.83747 -45.95067,-106.5625 -102.625,-106.5625 z" id="path4171"/>
    </g>
  </g>
</svg>